<?xml version="1.0" encoding="UTF-8" standalone="no"?>
<!-- Created with Inkscape (http://www.inkscape.org/) -->

<svg
   xmlns:dc="http://purl.org/dc/elements/1.1/"
   xmlns:cc="http://creativecommons.org/ns#"
   xmlns:rdf="http://www.w3.org/1999/02/22-rdf-syntax-ns#"
   xmlns:svg="http://www.w3.org/2000/svg"
   xmlns="http://www.w3.org/2000/svg"
   version="1.1"
   width="55"
   height="55"
   viewBox="0 0 55 55"
   id="svg2"
   xml:space="preserve"><metadata
     id="metadata25"><rdf:RDF><cc:Work
         rdf:about=""><dc:format>image/svg+xml</dc:format><dc:type
           rdf:resource="http://purl.org/dc/dcmitype/StillImage" /><dc:title></dc:title></cc:Work></rdf:RDF></metadata><defs
     id="defs33"><marker
   refX="0"
   refY="0"
   orient="auto"
   id="TriangleOutM"
   style="overflow:visible"><path
     d="m 5.77,0 -8.65,5 0,-10 8.65,5 z"
     transform="scale(0.4,0.4)"
     id="path4521"
     style="fill-rule:evenodd;stroke:#000000;stroke-width:1pt" /></marker><marker
   refX="0"
   refY="0"
   orient="auto"
   id="CurveOut"
   style="overflow:visible"><path
     d="m -5.4129913,-5.0456926 c 2.76,0 4.99999999,2.24 4.99999999,5.00000002 0,2.75999998 -2.23999999,4.99999998 -4.99999999,4.99999998"
     transform="scale(0.6,0.6)"
     id="path4563"
     style="fill:none;stroke:#000000;stroke-width:1pt" /></marker><marker
   refX="0"
   refY="0"
   orient="auto"
   id="EmptyTriangleOutL"
   style="overflow:visible"><path
     d="m 5.77,0 -8.65,5 0,-10 8.65,5 z"
     transform="matrix(0.8,0,0,0.8,-4.8,0)"
     id="path4536"
     style="fill:#ffffff;fill-rule:evenodd;stroke:#000000;stroke-width:1pt" /></marker><marker
   refX="0"
   refY="0"
   orient="auto"
   id="Arrow1Lend"
   style="overflow:visible"><path
     d="M 0,0 5,-5 -12.5,0 5,5 0,0 z"
     transform="matrix(-0.8,0,0,-0.8,-10,0)"
     id="path4379"
     style="fill-rule:evenodd;stroke:#000000;stroke-width:1pt" /></marker>

	
	
	

  
  

  
   
   
   
   

	

		
		
		
		
		
		
		
		
		
	
	
	
	

  
  

  
   
   
   
   
</defs><g
     transform="translate(1.5615263,-1.9620235)"
     id="g3877"><g
       transform="matrix(0.55205508,0,0,0.55205508,44.618464,18.235971)"
       id="g4382"
       style="fill:none;stroke:#ffffff;stroke-opacity:1"><g
         transform="translate(-80.093659,12.220029)"
         id="g4308"
         style="fill:none;stroke:#ffffff;stroke-opacity:1">
			<g
   id="g4310"
   style="fill:none;stroke:#ffffff;stroke-opacity:1">
				<path
   d="m 6.736,49.002 h 24.52 c 2.225,0 3.439,-1.447 3.439,-3.441 v -27.28 c 0,-1.73 -1.732,-3.441 -3.439,-3.441 h -4.389"
   id="path4312"
   style="fill:none;stroke:#ffffff;stroke-width:3.5;stroke-linecap:round;stroke-linejoin:round;stroke-opacity:1" />
			</g>
		</g><g
         transform="translate(-80.093659,12.220029)"
         id="g4314"
         style="fill:none;stroke:#ffffff;stroke-opacity:1">
			<g
   id="g4316"
   style="fill:none;stroke:#ffffff;stroke-opacity:1">
				<path
   d="m 26.867,38.592 c 0,1.836 -1.345,3.201 -3.441,4.047 L 6.736,49.002 V 14.84 l 16.69,-8.599 c 2.228,-0.394 3.441,0.84 3.441,2.834 v 29.517 z"
   id="path4318"
   style="fill:none;stroke:#ffffff;stroke-width:3.5;stroke-linecap:round;stroke-linejoin:round;stroke-opacity:1" />
			</g>
		</g><path
         d="m -70.669659,54.827029 c 0,0 -1.351,-0.543 -2.702,-0.543 -1.351,0 -2.703,0.543 -2.703,0.543"
         id="path4320"
         style="fill:none;stroke:#ffffff;stroke-width:2.25;stroke-linecap:round;stroke-linejoin:round;stroke-opacity:1" /><path
         d="m -70.669659,44.226029 c 0,0 -1.239,-0.543 -2.815,-0.543 -1.577,0 -2.59,0.543 -2.59,0.543"
         id="path4322"
         style="fill:none;stroke:#ffffff;stroke-width:2.25;stroke-linecap:round;stroke-linejoin:round;stroke-opacity:1" /><path
         d="m -70.669659,33.898029 c 0,0 -1.125,-0.544 -2.927,-0.544 -1.802,0 -2.478,0.544 -2.478,0.544"
         id="path4324"
         style="fill:none;stroke:#ffffff;stroke-width:2.25;stroke-linecap:round;stroke-linejoin:round;stroke-opacity:1" /><line
         id="line4326"
         y2="23.725029"
         y1="58.753029"
         x2="-66.884659"
         x1="-66.884659"
         style="fill:none;stroke:#ffffff;stroke-width:2.25;stroke-linecap:round;stroke-linejoin:round;stroke-opacity:1" /></g><rect
       width="21.046265"
       height="14.414704"
       ry="0"
       x="27.580683"
       y="7.1740475"
       id="rect2997"
       style="fill:none;stroke:#ffffff;stroke-width:2.5;stroke-linecap:butt;stroke-linejoin:miter;stroke-miterlimit:4;stroke-opacity:1;stroke-dasharray:none" /><path
       d="m 38.103183,11.36968 c -3.013622,0 -5.524233,3.005385 -5.524233,3.005385 0,0 2.510611,3.019956 5.524233,3.018055 3.01362,-0.0025 5.525498,-3.021856 5.525498,-3.021856 0,0 -2.511244,-3.003483 -5.525498,-3.001584 z m 0,5.12512 c -1.166932,0 -2.112767,-0.946468 -2.112767,-2.113399 0,-1.16503 0.945835,-2.113399 2.112767,-2.113399 1.16503,0 2.111498,0.948369 2.111498,2.113399 6.34e-4,1.166931 -0.945835,2.113399 -2.111498,2.113399 z"
       id="path3156"
       style="fill:#ffffff;fill-opacity:1;stroke:#ffffff;stroke-width:0.9502694;stroke-miterlimit:4;stroke-opacity:1;stroke-dasharray:none;display:inline" /><g
       transform="matrix(0,-1,-1,0,45.385698,88.99055)"
       id="g4770"
       style="fill:none;stroke:#ffffff;stroke-opacity:1"><g
         transform="translate(34.0803,-1006.42)"
         id="g4772"
         style="fill:none;stroke:#ffffff;stroke-opacity:1"><polyline
           id="polyline4774"
           points="51.562,15.306 41.17,16.188 42.053,5.794"
           style="fill:none;stroke:#ffffff;stroke-width:3.5;stroke-linecap:round;stroke-linejoin:round;stroke-opacity:1"
           transform="matrix(-0.469241,0.469241,-0.469241,-0.469241,66.2906,1019.03)" /><path
           d="m 39.363241,1033.1291 -0.05636,9.9115 -8.750608,0.067"
           id="path4776"
           style="fill:none;stroke:#ffffff;stroke-width:2.5;stroke-linecap:round;stroke-linejoin:round;stroke-miterlimit:4;stroke-opacity:1;stroke-dasharray:none" /></g></g></g></svg>